<mxfile host="65bd71144e">
    <diagram id="CondominioERD" name="Condominio ERD">
        <mxGraphModel dx="913" dy="827" grid="1" gridSize="10" guides="1" tooltips="1" connect="1" arrows="1" fold="1" page="1" pageScale="1" pageWidth="850" pageHeight="1100" math="0" shadow="0">
            <root>
                <mxCell id="0"/>
                <mxCell id="1" parent="0"/>
                <mxCell id="Users" value="Users\n- Id (PK)\n- Login (U)\n- User_Name\n- Last_Name\n- Legal_Id\n- Start_Date\n- End_Date\n- PASSWORD" style="rounded=1;whiteSpace=wrap;html=1;fillColor=#dae8fc;strokeColor=#6c8ebf;" parent="1" vertex="1">
                    <mxGeometry x="20" y="10" width="180" height="140" as="geometry"/>
                </mxCell>
                <mxCell id="Roles" value="Roles\n- Id (PK)\n- Rol_Name\n- Description" style="rounded=1;whiteSpace=wrap;html=1;fillColor=#e1d5e7;strokeColor=#9673a6;" parent="1" vertex="1">
                    <mxGeometry x="310" y="40" width="160" height="80" as="geometry"/>
                </mxCell>
                <mxCell id="User_Roles" value="User_Roles\n- Role_Id (PK, FK)\n- User_Id (PK, FK)\n- Start_Date\n- End_Date" style="rounded=1;whiteSpace=wrap;html=1;fillColor=#fff2cc;strokeColor=#d6b656;" parent="1" vertex="1">
                    <mxGeometry x="230" y="190" width="180" height="100" as="geometry"/>
                </mxCell>
                <mxCell id="Property_Type" value="Property_Type\n- Id (PK)\n- Type\n- Description\n- Rooms\n- Bathrooms\n- Water_Service\n- Start_Date\n- End_Date" style="rounded=1;whiteSpace=wrap;html=1;fillColor=#d5e8d4;strokeColor=#82b366;" parent="1" vertex="1">
                    <mxGeometry x="40" y="320" width="200" height="140" as="geometry"/>
                </mxCell>
                <mxCell id="Property" value="Property\n- Id (PK)\n- Legal_Id\n- Tower\n- Floor\n- Code\n- Property_Type (FK)\n- Start_Date\n- End_Date" style="rounded=1;whiteSpace=wrap;html=1;fillColor=#ffe6cc;strokeColor=#d79b00;" parent="1" vertex="1">
                    <mxGeometry x="300" y="320" width="180" height="120" as="geometry"/>
                </mxCell>
                <mxCell id="Property_Owners" value="Property_Owners\n- Property_Id (PK, FK)\n- User_Id (PK, FK)\n- Start_Date\n- End_Date" style="rounded=1;whiteSpace=wrap;html=1;fillColor=#f8cecc;strokeColor=#b85450;" parent="1" vertex="1">
                    <mxGeometry x="540" y="320" width="180" height="100" as="geometry"/>
                </mxCell>
                <mxCell id="Expense_Categories" value="Expense_Categories\n- Id (PK)\n- Category\n- Description" style="rounded=1;whiteSpace=wrap;html=1;fillColor=#cce6ff;strokeColor=#3399ff;" parent="1" vertex="1">
                    <mxGeometry x="40" y="520" width="180" height="80" as="geometry"/>
                </mxCell>
                <mxCell id="Expenses" value="Expenses\n- Id (PK)\n- Receive_Number\n- Category_Id (FK)\n- Property_Id (FK)\n- Start_Date\n- Payment_Limit_Date\n- Amount\n- Interest_Amount\n- Interest_Rate\n- Description\n- Status\n- Expense_Date" style="rounded=1;whiteSpace=wrap;html=1;fillColor=#e1e1e1;strokeColor=#888888;" parent="1" vertex="1">
                    <mxGeometry x="300" y="520" width="220" height="180" as="geometry"/>
                </mxCell>
                <mxCell id="Payments" value="Payments\n- Id (PK)\n- Expense_Id (FK)\n- Payment_Date\n- Amount\n- Description\n- Receive_Photo" style="rounded=1;whiteSpace=wrap;html=1;fillColor=#e1d5e7;strokeColor=#9673a6;" parent="1" vertex="1">
                    <mxGeometry x="580" y="520" width="180" height="100" as="geometry"/>
                </mxCell>
                <mxCell id="Versions" value="Versions\n- Version (PK)\n- Last_Updated" style="rounded=1;whiteSpace=wrap;html=1;fillColor=#f5f5f5;strokeColor=#666666;" parent="1" vertex="1">
                    <mxGeometry x="580" y="40" width="140" height="60" as="geometry"/>
                </mxCell>
                <mxCell id="rel1" style="edgeStyle=orthogonalEdgeStyle;rounded=0;orthogonalLoop=1;jettySize=auto;html=1;endArrow=block;endFill=1;strokeColor=#6c8ebf;" parent="1" source="User_Roles" target="Users" edge="1">
                    <mxGeometry relative="1" as="geometry"/>
                </mxCell>
                <mxCell id="rel2" style="edgeStyle=orthogonalEdgeStyle;rounded=0;orthogonalLoop=1;jettySize=auto;html=1;endArrow=block;endFill=1;strokeColor=#9673a6;" parent="1" source="User_Roles" target="Roles" edge="1">
                    <mxGeometry relative="1" as="geometry"/>
                </mxCell>
                <mxCell id="rel3" style="edgeStyle=orthogonalEdgeStyle;rounded=0;orthogonalLoop=1;jettySize=auto;html=1;endArrow=block;endFill=1;strokeColor=#82b366;" parent="1" source="Property" target="Property_Type" edge="1">
                    <mxGeometry relative="1" as="geometry"/>
                </mxCell>
                <mxCell id="rel4" style="edgeStyle=orthogonalEdgeStyle;rounded=0;orthogonalLoop=1;jettySize=auto;html=1;endArrow=block;endFill=1;strokeColor=#b85450;" parent="1" source="Property_Owners" target="Property" edge="1">
                    <mxGeometry relative="1" as="geometry"/>
                </mxCell>
                <mxCell id="rel5" style="edgeStyle=orthogonalEdgeStyle;rounded=0;orthogonalLoop=1;jettySize=auto;html=1;endArrow=block;endFill=1;strokeColor=#b85450;" parent="1" source="Property_Owners" target="Users" edge="1">
                    <mxGeometry relative="1" as="geometry">
                        <Array as="points">
                            <mxPoint x="780" y="370"/>
                            <mxPoint x="780" y="80"/>
                        </Array>
                    </mxGeometry>
                </mxCell>
                <mxCell id="rel6" style="edgeStyle=orthogonalEdgeStyle;rounded=0;orthogonalLoop=1;jettySize=auto;html=1;endArrow=block;endFill=1;strokeColor=#3399ff;" parent="1" source="Expenses" target="Expense_Categories" edge="1">
                    <mxGeometry relative="1" as="geometry"/>
                </mxCell>
                <mxCell id="rel7" style="edgeStyle=orthogonalEdgeStyle;rounded=0;orthogonalLoop=1;jettySize=auto;html=1;endArrow=block;endFill=1;strokeColor=#d79b00;" parent="1" source="Expenses" target="Property" edge="1">
                    <mxGeometry relative="1" as="geometry"/>
                </mxCell>
                <mxCell id="rel8" style="edgeStyle=orthogonalEdgeStyle;rounded=0;orthogonalLoop=1;jettySize=auto;html=1;endArrow=block;endFill=1;strokeColor=#888888;" parent="1" source="Payments" target="Expenses" edge="1">
                    <mxGeometry relative="1" as="geometry"/>
                </mxCell>
            </root>
        </mxGraphModel>
    </diagram>
    <diagram id="B9KikgRdh5SkJWu5U0V2" name="Page-2">
        <mxGraphModel dx="913" dy="827" grid="1" gridSize="10" guides="1" tooltips="1" connect="1" arrows="1" fold="1" page="1" pageScale="1" pageWidth="850" pageHeight="1100" math="0" shadow="0">
            <root>
                <mxCell id="0"/>
                <mxCell id="1" parent="0"/>
                <mxCell id="SHr9ytHlv4E1FwLykd8u-1" value="Users" style="shape=table;startSize=30;container=1;collapsible=1;childLayout=tableLayout;fixedRows=1;rowLines=0;fontStyle=1;align=center;resizeLast=1;html=1;" vertex="1" parent="1">
                    <mxGeometry x="100" y="960" width="180" height="150" as="geometry"/>
                </mxCell>
                <mxCell id="SHr9ytHlv4E1FwLykd8u-2" value="" style="shape=tableRow;horizontal=0;startSize=0;swimlaneHead=0;swimlaneBody=0;fillColor=none;collapsible=0;dropTarget=0;points=[[0,0.5],[1,0.5]];portConstraint=eastwest;top=0;left=0;right=0;bottom=1;" vertex="1" parent="SHr9ytHlv4E1FwLykd8u-1">
                    <mxGeometry y="30" width="180" height="30" as="geometry"/>
                </mxCell>
                <mxCell id="SHr9ytHlv4E1FwLykd8u-3" value="PK" style="shape=partialRectangle;connectable=0;fillColor=none;top=0;left=0;bottom=0;right=0;fontStyle=1;overflow=hidden;whiteSpace=wrap;html=1;" vertex="1" parent="SHr9ytHlv4E1FwLykd8u-2">
                    <mxGeometry width="30" height="30" as="geometry">
                        <mxRectangle width="30" height="30" as="alternateBounds"/>
                    </mxGeometry>
                </mxCell>
                <mxCell id="SHr9ytHlv4E1FwLykd8u-4" value="Id" style="shape=partialRectangle;connectable=0;fillColor=none;top=0;left=0;bottom=0;right=0;align=left;spacingLeft=6;fontStyle=5;overflow=hidden;whiteSpace=wrap;html=1;" vertex="1" parent="SHr9ytHlv4E1FwLykd8u-2">
                    <mxGeometry x="30" width="150" height="30" as="geometry">
                        <mxRectangle width="150" height="30" as="alternateBounds"/>
                    </mxGeometry>
                </mxCell>
                <mxCell id="SHr9ytHlv4E1FwLykd8u-5" value="" style="shape=tableRow;horizontal=0;startSize=0;swimlaneHead=0;swimlaneBody=0;fillColor=none;collapsible=0;dropTarget=0;points=[[0,0.5],[1,0.5]];portConstraint=eastwest;top=0;left=0;right=0;bottom=0;" vertex="1" parent="SHr9ytHlv4E1FwLykd8u-1">
                    <mxGeometry y="60" width="180" height="30" as="geometry"/>
                </mxCell>
                <mxCell id="SHr9ytHlv4E1FwLykd8u-6" value="" style="shape=partialRectangle;connectable=0;fillColor=none;top=0;left=0;bottom=0;right=0;editable=1;overflow=hidden;whiteSpace=wrap;html=1;" vertex="1" parent="SHr9ytHlv4E1FwLykd8u-5">
                    <mxGeometry width="30" height="30" as="geometry">
                        <mxRectangle width="30" height="30" as="alternateBounds"/>
                    </mxGeometry>
                </mxCell>
                <mxCell id="SHr9ytHlv4E1FwLykd8u-7" value="Login" style="shape=partialRectangle;connectable=0;fillColor=none;top=0;left=0;bottom=0;right=0;align=left;spacingLeft=6;overflow=hidden;whiteSpace=wrap;html=1;" vertex="1" parent="SHr9ytHlv4E1FwLykd8u-5">
                    <mxGeometry x="30" width="150" height="30" as="geometry">
                        <mxRectangle width="150" height="30" as="alternateBounds"/>
                    </mxGeometry>
                </mxCell>
                <mxCell id="SHr9ytHlv4E1FwLykd8u-8" value="" style="shape=tableRow;horizontal=0;startSize=0;swimlaneHead=0;swimlaneBody=0;fillColor=none;collapsible=0;dropTarget=0;points=[[0,0.5],[1,0.5]];portConstraint=eastwest;top=0;left=0;right=0;bottom=0;" vertex="1" parent="SHr9ytHlv4E1FwLykd8u-1">
                    <mxGeometry y="90" width="180" height="30" as="geometry"/>
                </mxCell>
                <mxCell id="SHr9ytHlv4E1FwLykd8u-9" value="" style="shape=partialRectangle;connectable=0;fillColor=none;top=0;left=0;bottom=0;right=0;editable=1;overflow=hidden;whiteSpace=wrap;html=1;" vertex="1" parent="SHr9ytHlv4E1FwLykd8u-8">
                    <mxGeometry width="30" height="30" as="geometry">
                        <mxRectangle width="30" height="30" as="alternateBounds"/>
                    </mxGeometry>
                </mxCell>
                <mxCell id="SHr9ytHlv4E1FwLykd8u-10" value="User_Name" style="shape=partialRectangle;connectable=0;fillColor=none;top=0;left=0;bottom=0;right=0;align=left;spacingLeft=6;overflow=hidden;whiteSpace=wrap;html=1;" vertex="1" parent="SHr9ytHlv4E1FwLykd8u-8">
                    <mxGeometry x="30" width="150" height="30" as="geometry">
                        <mxRectangle width="150" height="30" as="alternateBounds"/>
                    </mxGeometry>
                </mxCell>
                <mxCell id="SHr9ytHlv4E1FwLykd8u-11" value="" style="shape=tableRow;horizontal=0;startSize=0;swimlaneHead=0;swimlaneBody=0;fillColor=none;collapsible=0;dropTarget=0;points=[[0,0.5],[1,0.5]];portConstraint=eastwest;top=0;left=0;right=0;bottom=0;" vertex="1" parent="SHr9ytHlv4E1FwLykd8u-1">
                    <mxGeometry y="120" width="180" height="30" as="geometry"/>
                </mxCell>
                <mxCell id="SHr9ytHlv4E1FwLykd8u-12" value="" style="shape=partialRectangle;connectable=0;fillColor=none;top=0;left=0;bottom=0;right=0;editable=1;overflow=hidden;whiteSpace=wrap;html=1;" vertex="1" parent="SHr9ytHlv4E1FwLykd8u-11">
                    <mxGeometry width="30" height="30" as="geometry">
                        <mxRectangle width="30" height="30" as="alternateBounds"/>
                    </mxGeometry>
                </mxCell>
                <mxCell id="SHr9ytHlv4E1FwLykd8u-13" value="Last_Name" style="shape=partialRectangle;connectable=0;fillColor=none;top=0;left=0;bottom=0;right=0;align=left;spacingLeft=6;overflow=hidden;whiteSpace=wrap;html=1;" vertex="1" parent="SHr9ytHlv4E1FwLykd8u-11">
                    <mxGeometry x="30" width="150" height="30" as="geometry">
                        <mxRectangle width="150" height="30" as="alternateBounds"/>
                    </mxGeometry>
                </mxCell>
            </root>
        </mxGraphModel>
    </diagram>
</mxfile>